<svg width="211" height="99" viewBox="0 0 211 99" fill="none" xmlns="http://www.w3.org/2000/svg">
<path d="M41.52 91V64.6H31.536V57.4H59.904V64.6H49.68V91H41.52ZM59.0145 91L72.3105 57.4H79.2225L92.4225 91H84.1665L77.8305 73.96C77.5745 73.288 77.3185 72.568 77.0625 71.8C76.8065 71.032 76.5505 70.248 76.2945 69.448C76.0385 68.616 75.7825 67.816 75.5265 67.048C75.3025 66.248 75.1105 65.512 74.9505 64.84L76.3905 64.792C76.1985 65.592 75.9745 66.376 75.7185 67.144C75.4945 67.912 75.2545 68.68 74.9985 69.448C74.7745 70.184 74.5185 70.936 74.2305 71.704C73.9425 72.44 73.6705 73.208 73.4145 74.008L67.0785 91H59.0145ZM65.3505 84.568L67.8945 78.424H83.3505L85.8465 84.568H65.3505ZM107.751 91.48C105.543 91.48 103.543 91.224 101.751 90.712C99.9906 90.168 98.4226 89.4 97.0466 88.408C95.6706 87.384 94.4386 86.184 93.3506 84.808L98.2946 79.192C99.8946 81.336 101.495 82.776 103.095 83.512C104.727 84.248 106.407 84.616 108.135 84.616C108.999 84.616 109.783 84.504 110.487 84.28C111.191 84.056 111.735 83.736 112.119 83.32C112.503 82.872 112.695 82.328 112.695 81.688C112.695 81.208 112.567 80.776 112.311 80.392C112.087 80.008 111.767 79.672 111.351 79.384C110.935 79.096 110.439 78.84 109.863 78.616C109.287 78.36 108.679 78.152 108.039 77.992C107.399 77.8 106.743 77.64 106.071 77.512C104.215 77.096 102.599 76.584 101.223 75.976C99.8466 75.368 98.6946 74.632 97.7666 73.768C96.8706 72.872 96.1986 71.864 95.7506 70.744C95.3026 69.592 95.0786 68.312 95.0786 66.904C95.0786 65.4 95.4146 64.024 96.0866 62.776C96.7906 61.496 97.7186 60.408 98.8706 59.512C100.055 58.584 101.415 57.88 102.951 57.4C104.487 56.888 106.087 56.632 107.751 56.632C109.959 56.632 111.847 56.872 113.415 57.352C115.015 57.8 116.375 58.456 117.495 59.32C118.647 60.184 119.623 61.224 120.423 62.44L115.383 67.288C114.711 66.456 113.975 65.768 113.175 65.224C112.407 64.68 111.575 64.264 110.679 63.976C109.815 63.688 108.919 63.544 107.991 63.544C107.031 63.544 106.199 63.672 105.495 63.928C104.823 64.152 104.295 64.488 103.911 64.936C103.527 65.352 103.335 65.864 103.335 66.472C103.335 67.016 103.495 67.48 103.815 67.864C104.135 68.248 104.567 68.6 105.111 68.92C105.655 69.208 106.279 69.464 106.983 69.688C107.687 69.88 108.423 70.04 109.191 70.168C110.951 70.52 112.535 70.984 113.943 71.56C115.383 72.136 116.615 72.84 117.639 73.672C118.695 74.504 119.495 75.496 120.039 76.648C120.615 77.768 120.903 79.08 120.903 80.584C120.903 82.92 120.327 84.904 119.175 86.536C118.055 88.136 116.503 89.368 114.519 90.232C112.567 91.064 110.311 91.48 107.751 91.48ZM132.989 81.16L130.877 74.296L147.533 57.4H157.181L132.989 81.16ZM127.037 91V57.4H135.197V91H127.037ZM148.589 91L136.109 74.584L141.629 69.832L158.093 91H148.589ZM173.188 91.48C170.98 91.48 168.98 91.224 167.188 90.712C165.428 90.168 163.86 89.4 162.484 88.408C161.108 87.384 159.876 86.184 158.788 84.808L163.732 79.192C165.332 81.336 166.932 82.776 168.532 83.512C170.164 84.248 171.844 84.616 173.572 84.616C174.436 84.616 175.22 84.504 175.924 84.28C176.628 84.056 177.172 83.736 177.556 83.32C177.94 82.872 178.132 82.328 178.132 81.688C178.132 81.208 178.004 80.776 177.748 80.392C177.524 80.008 177.204 79.672 176.788 79.384C176.372 79.096 175.876 78.84 175.3 78.616C174.724 78.36 174.116 78.152 173.476 77.992C172.836 77.8 172.18 77.64 171.508 77.512C169.652 77.096 168.036 76.584 166.66 75.976C165.284 75.368 164.132 74.632 163.204 73.768C162.308 72.872 161.636 71.864 161.188 70.744C160.74 69.592 160.516 68.312 160.516 66.904C160.516 65.4 160.852 64.024 161.524 62.776C162.228 61.496 163.156 60.408 164.308 59.512C165.492 58.584 166.852 57.88 168.388 57.4C169.924 56.888 171.524 56.632 173.188 56.632C175.396 56.632 177.284 56.872 178.852 57.352C180.452 57.8 181.812 58.456 182.932 59.32C184.084 60.184 185.06 61.224 185.86 62.44L180.82 67.288C180.148 66.456 179.412 65.768 178.612 65.224C177.844 64.68 177.012 64.264 176.116 63.976C175.252 63.688 174.356 63.544 173.428 63.544C172.468 63.544 171.636 63.672 170.932 63.928C170.26 64.152 169.732 64.488 169.348 64.936C168.964 65.352 168.772 65.864 168.772 66.472C168.772 67.016 168.932 67.48 169.252 67.864C169.572 68.248 170.004 68.6 170.548 68.92C171.092 69.208 171.716 69.464 172.42 69.688C173.124 69.88 173.86 70.04 174.628 70.168C176.388 70.52 177.972 70.984 179.38 71.56C180.82 72.136 182.052 72.84 183.076 73.672C184.132 74.504 184.932 75.496 185.476 76.648C186.052 77.768 186.34 79.08 186.34 80.584C186.34 82.92 185.764 84.904 184.612 86.536C183.492 88.136 181.94 89.368 179.956 90.232C178.004 91.064 175.748 91.48 173.188 91.48Z" fill="black"/>
<path d="M4.224 48V14.4H27.648V21.36H12.144V41.04H28.128V48H4.224ZM8.064 34.224V27.6H25.488V34.224H8.064Z" fill="#D42626"/>
<path d="M46.2975 48.48C44.0895 48.48 42.0895 48.224 40.2975 47.712C38.5375 47.168 36.9695 46.4 35.5935 45.408C34.2175 44.384 32.9855 43.184 31.8975 41.808L36.8415 36.192C38.4415 38.336 40.0415 39.776 41.6415 40.512C43.2735 41.248 44.9535 41.616 46.6815 41.616C47.5455 41.616 48.3295 41.504 49.0335 41.28C49.7375 41.056 50.2815 40.736 50.6655 40.32C51.0495 39.872 51.2415 39.328 51.2415 38.688C51.2415 38.208 51.1135 37.776 50.8575 37.392C50.6335 37.008 50.3135 36.672 49.8975 36.384C49.4815 36.096 48.9855 35.84 48.4095 35.616C47.8335 35.36 47.2255 35.152 46.5855 34.992C45.9455 34.8 45.2895 34.64 44.6175 34.512C42.7615 34.096 41.1455 33.584 39.7695 32.976C38.3935 32.368 37.2415 31.632 36.3135 30.768C35.4175 29.872 34.7455 28.864 34.2975 27.744C33.8495 26.592 33.6255 25.312 33.6255 23.904C33.6255 22.4 33.9615 21.024 34.6335 19.776C35.3375 18.496 36.2655 17.408 37.4175 16.512C38.6015 15.584 39.9615 14.88 41.4975 14.4C43.0335 13.888 44.6335 13.632 46.2975 13.632C48.5055 13.632 50.3935 13.872 51.9615 14.352C53.5615 14.8 54.9215 15.456 56.0415 16.32C57.1935 17.184 58.1695 18.224 58.9695 19.44L53.9295 24.288C53.2575 23.456 52.5215 22.768 51.7215 22.224C50.9535 21.68 50.1215 21.264 49.2255 20.976C48.3615 20.688 47.4655 20.544 46.5375 20.544C45.5775 20.544 44.7455 20.672 44.0415 20.928C43.3695 21.152 42.8415 21.488 42.4575 21.936C42.0735 22.352 41.8815 22.864 41.8815 23.472C41.8815 24.016 42.0415 24.48 42.3615 24.864C42.6815 25.248 43.1135 25.6 43.6575 25.92C44.2015 26.208 44.8255 26.464 45.5295 26.688C46.2335 26.88 46.9695 27.04 47.7375 27.168C49.4975 27.52 51.0815 27.984 52.4895 28.56C53.9295 29.136 55.1615 29.84 56.1855 30.672C57.2415 31.504 58.0415 32.496 58.5855 33.648C59.1615 34.768 59.4495 36.08 59.4495 37.584C59.4495 39.92 58.8735 41.904 57.7215 43.536C56.6015 45.136 55.0495 46.368 53.0655 47.232C51.1135 48.064 48.8575 48.48 46.2975 48.48ZM64.9114 48V41.136H70.5754V21.264H64.9114V14.4H84.4474V21.264H78.7354V41.136H84.4474V48H64.9114ZM107.105 48.48C104.417 48.48 101.985 48.048 99.8093 47.184C97.6333 46.32 95.7613 45.104 94.1933 43.536C92.6253 41.968 91.4253 40.128 90.5933 38.016C89.7613 35.872 89.3453 33.552 89.3453 31.056C89.3453 28.56 89.7773 26.272 90.6413 24.192C91.5373 22.08 92.8013 20.24 94.4333 18.672C96.0653 17.104 97.9853 15.888 100.193 15.024C102.433 14.16 104.865 13.728 107.489 13.728C109.345 13.728 111.089 13.968 112.721 14.448C114.385 14.928 115.889 15.584 117.233 16.416C118.577 17.248 119.713 18.208 120.641 19.296L115.697 24.528C114.897 23.76 114.065 23.12 113.201 22.608C112.369 22.096 111.473 21.696 110.513 21.408C109.553 21.088 108.529 20.928 107.441 20.928C106.033 20.928 104.737 21.184 103.553 21.696C102.401 22.208 101.377 22.928 100.481 23.856C99.6173 24.752 98.9453 25.824 98.4653 27.072C97.9853 28.288 97.7453 29.616 97.7453 31.056C97.7453 32.496 98.0013 33.84 98.5133 35.088C99.0253 36.336 99.7293 37.424 100.625 38.352C101.521 39.248 102.577 39.968 103.793 40.512C105.041 41.024 106.369 41.28 107.777 41.28C108.769 41.28 109.697 41.12 110.561 40.8C111.457 40.48 112.225 40.048 112.865 39.504C113.505 38.96 114.017 38.32 114.401 37.584C114.785 36.816 114.977 36 114.977 35.136V33.888L116.033 35.52H106.769V29.136H122.561C122.625 29.488 122.673 29.968 122.705 30.576C122.737 31.184 122.753 31.776 122.753 32.352C122.785 32.928 122.801 33.36 122.801 33.648C122.801 35.824 122.401 37.824 121.601 39.648C120.833 41.44 119.745 42.992 118.337 44.304C116.929 45.616 115.265 46.64 113.345 47.376C111.425 48.112 109.345 48.48 107.105 48.48Z" fill="black"/>
</svg>
